<?xml version="1.0" encoding="UTF-8" standalone="no"?>
<!DOCTYPE svg PUBLIC "-//W3C//DTD SVG 1.1//EN" "http://www.w3.org/Graphics/SVG/1.1/DTD/svg11.dtd">
<svg width="100%" height="100%" viewBox="0 0 64 64" version="1.1" xmlns="http://www.w3.org/2000/svg" xmlns:xlink="http://www.w3.org/1999/xlink" xml:space="preserve" xmlns:serif="http://www.serif.com/" style="fill-rule:evenodd;clip-rule:evenodd;stroke-linejoin:round;stroke-miterlimit:2;">
    <g transform="matrix(1,0,0,1,-74.082157,0)">
        <g id="Artboard2" transform="matrix(1,0,0,1,-39.917843,0)">
            <rect x="114" y="0" width="64" height="64" style="fill:none;"/>
            <g id="Coal" transform="matrix(1,0,0,1,114,-0)">
                <g transform="matrix(1,0,0,1,-74.082157,0)">
                    <path d="M102.766,12.479C109.706,13.868 123.858,1.072 129.697,5.277C135.537,9.481 122.807,27.583 122.924,34.357C123.04,41.131 137.522,50.221 132.851,54.61C128.179,58.999 112.715,50.352 106.082,50.471C99.449,50.59 88.705,62.736 84.5,58.415C80.296,54.094 88.121,36.708 88.238,30.394C88.354,24.08 76.208,17.292 80.062,10.934C83.916,4.576 94.403,10.805 102.766,12.479Z" style="fill:rgb(113,113,113);"/>
                </g>
                <g transform="matrix(1.322404,0,0,1.322404,-10.235845,-15.753277)">
                    <path d="M24.666,26.674L17.472,32L22.984,41.063L38.307,43.118L41.39,28.169L24.666,26.674Z"/>
                </g>
                <g transform="matrix(1.322404,0,0,1.322404,-12.3171,-18.039012)">
                    <path d="M34.569,21.909L32,30.318L45.874,34.896L48.677,24.152L34.569,21.909Z" style="fill:rgb(150,150,150);"/>
                </g>
                <g transform="matrix(1.322404,0,0,1.322404,-10.235845,-15.753277)">
                    <path d="M17.472,19.2L17.472,23.311L24.479,23.498L17.472,19.2Z"/>
                </g>
                <g transform="matrix(1.213284,-0.526019,0.526019,1.213284,-33.674669,13.794777)">
                    <path d="M46.435,44.426L45.968,48.911L53.255,49.191L52.228,43.118L48.677,41.25L46.435,44.426Z"/>
                </g>
                <g transform="matrix(1.322404,0,0,1.322404,-10.235845,-10.842043)">
                    <path d="M15.509,45.22L13.174,41.25L19.153,41.25L20.975,44.146L15.509,45.22Z"/>
                </g>
                <g transform="matrix(1.321056,0.059713,-0.059713,1.321056,-3.089537,-13.877173)">
                    <path d="M14.575,37.139L24.479,32L20.975,39.568L14.575,37.139Z" style="fill:rgb(77,77,77);"/>
                </g>
                <g transform="matrix(1.322404,0,0,1.322404,-11.409602,-18.718554)">
                    <path d="M34.009,49.191L29.431,54.33L36.345,55.451L34.009,49.191Z"/>
                </g>
            </g>
        </g>
    </g>
</svg>
